fd_2_states
version=1
nRows=15
nColumns=17
inDegrees=yes

# SIMM Motion File Header:
name fd_2_states
datacolumns 17
datarows 15
otherdata 1
range 0.703635 0.710266
endheader
time	/jointset/r_shoulder/r_shoulder_elev/value	/jointset/r_shoulder/r_shoulder_elev/speed	/jointset/r_elbow/r_elbow_flex/value	/jointset/r_elbow/r_elbow_flex/speed	/forceset/TRIlong/activation	/forceset/TRIlong/fiber_length	/forceset/TRIlat/activation	/forceset/TRIlat/fiber_length	/forceset/TRImed/activation	/forceset/TRImed/fiber_length	/forceset/BIClong/activation	/forceset/BIClong/fiber_length	/forceset/BICshort/activation	/forceset/BICshort/fiber_length	/forceset/BRA/activation	/forceset/BRA/fiber_length
      0.703635	    -11.514768	     -3.953941	     88.102238	   -301.379540	      0.045919	      0.162045	      0.410794	      0.102452	      0.403949	      0.097510	      0.152063	      0.102265	      0.042688	      0.100641	      0.035426	      0.069107
      0.704112	    -11.516594	     -3.714220	     87.958733	   -301.207326	      0.045744	      0.161997	      0.411072	      0.102403	      0.404150	      0.097462	      0.151674	      0.102391	      0.042536	      0.100766	      0.035325	      0.069158
      0.704588	    -11.518306	     -3.474909	     87.815309	   -301.037861	      0.045570	      0.161949	      0.411337	      0.102355	      0.404343	      0.097413	      0.151288	      0.102516	      0.042385	      0.100890	      0.035224	      0.069217
      0.705258	    -11.520522	     -3.134545	     87.613582	   -300.820028	      0.045328	      0.161882	      0.411693	      0.102286	      0.404600	      0.097345	      0.150751	      0.102692	      0.042175	      0.101065	      0.035084	      0.069293
      0.705736	    -11.521960	     -2.891922	     87.470027	   -300.670908	      0.045157	      0.161834	      0.411933	      0.102237	      0.404774	      0.097296	      0.150373	      0.102818	      0.042026	      0.101190	      0.034985	      0.069357
      0.706213	    -11.523282	     -2.645693	     87.326539	   -300.539521	      0.044987	      0.161786	      0.412163	      0.102188	      0.404940	      0.097247	      0.149999	      0.102943	      0.041879	      0.101314	      0.034886	      0.069408
      0.706690	    -11.524486	     -2.399100	     87.183112	   -300.413470	      0.044818	      0.161739	      0.412383	      0.102139	      0.405100	      0.097198	      0.149628	      0.103068	      0.041732	      0.101438	      0.034789	      0.069466
      0.707372	    -11.526001	     -2.042357	     86.978397	   -300.257593	      0.044580	      0.161671	      0.412682	      0.102069	      0.405316	      0.097128	      0.149104	      0.103246	      0.041525	      0.101615	      0.034650	      0.069544
      0.707851	    -11.526919	     -1.790475	     86.834446	   -300.156021	      0.044413	      0.161623	      0.412882	      0.102019	      0.405460	      0.097079	      0.148740	      0.103371	      0.041380	      0.101740	      0.034553	      0.069607
      0.708331	    -11.527717	     -1.534583	     86.690540	   -300.073272	      0.044248	      0.161576	      0.413073	      0.101970	      0.405598	      0.097030	      0.148379	      0.103496	      0.041237	      0.101864	      0.034458	      0.069659
      0.708810	    -11.528391	     -1.277946	     86.546672	   -299.996919	      0.044084	      0.161528	      0.413256	      0.101920	      0.405730	      0.096980	      0.148022	      0.103621	      0.041094	      0.101988	      0.034362	      0.069717
      0.709499	    -11.529143	     -0.904399	     86.340204	   -299.912756	      0.043851	      0.161460	      0.413505	      0.101849	      0.405910	      0.096910	      0.147515	      0.103800	      0.040892	      0.102166	      0.034227	      0.069794
      0.709952	    -11.529497	     -0.657159	     86.204231	   -299.865587	      0.043698	      0.161416	      0.413661	      0.101803	      0.406023	      0.096863	      0.147184	      0.103917	      0.040759	      0.102283	      0.034138	      0.069852
      0.710109	    -11.529593	     -0.570594	     86.157194	   -299.853822	      0.043646	      0.161400	      0.413470	      0.101787	      0.405820	      0.096847	      0.147071	      0.103958	      0.040713	      0.102323	      0.034115	      0.069869
      0.710266	    -11.529676	     -0.484013	     86.110159	   -299.842463	      0.043593	      0.161385	      0.412947	      0.101770	      0.405279	      0.096831	      0.146959	      0.103999	      0.040668	      0.102364	      0.034103	      0.069887
